<?xml version="1.0" encoding="UTF-8" standalone="no"?><!DOCTYPE svg PUBLIC "-//W3C//DTD SVG 1.1//EN" "http://www.w3.org/Graphics/SVG/1.1/DTD/svg11.dtd"><svg width="100%" height="100%" viewBox="0 0 512 512" version="1.1" xmlns="http://www.w3.org/2000/svg" xmlns:xlink="http://www.w3.org/1999/xlink" xml:space="preserve" xmlns:serif="http://www.serif.com/" style="fill-rule:evenodd;clip-rule:evenodd;stroke-linejoin:round;stroke-miterlimit:2;"><g><g id="Favicon"><path d="M0,256c0,-191.914 64.086,-256 256,-256c191.914,-0 256,64.086 256,256c-0,191.914 -64.086,256 -256,256c-191.914,0 -256,-64.086 -256,-256Z" style="fill:#fd074a;"/><path d="M427.709,155.419c14.32,-2.119 10.306,23.832 22.689,46.371c10.923,19.881 21.101,23.153 20.349,38.645c-0.882,18.151 -5.85,16.305 -24.711,39.678c-20.912,25.915 -16.776,37.493 -29.751,39.264c-13.096,1.788 -12.701,-18.766 -23.498,-34.04c-13.459,-19.04 -21.907,-19.172 -21.002,-34.846c1.09,-18.883 10.99,-19.828 27.311,-43.926c16.787,-24.786 13.61,-48.926 28.613,-51.146Zm-243.059,-15.054c7.853,0.013 17.59,1.159 25.174,4.338c4.89,2.049 8.885,4.933 10.769,8.973c4.617,9.899 7.891,33.506 7.026,62.469c-1.302,43.575 -12.008,99.255 -41.903,138.781c-13.73,18.153 -32.24,30.582 -53.859,36.113c-6.902,1.766 -27.877,4.908 -42.743,-4.278c-20.297,-12.541 -26.522,-41.691 -10.677,-59.775c5.528,-6.31 15.043,-10.34 24.535,-10.761c9.426,-0.418 18.858,2.731 24.302,10.892c5.922,8.878 4.217,22.879 -1.214,30.133c-1.314,1.755 -2.183,3.29 -2.506,4.451c-0.351,1.256 -0.105,2.193 0.542,2.774c0.558,0.503 1.563,0.799 3.125,0.578c2.022,-0.288 3.957,-1.47 5.705,-3.144c2.457,-2.352 4.562,-5.675 6.087,-8.522c13.239,-24.713 15.097,-44.957 18.146,-71.789c3.487,-30.69 0.722,-72.397 -4.764,-99.731c-2.379,-11.85 -5.294,-21.02 -8.403,-25.507c-1.033,-1.492 -1.352,-2.862 -1.084,-4.061c0.411,-1.832 2.127,-3.186 4.31,-3.928c8.537,-2.904 19.462,-8.037 37.432,-8.006Zm141.759,-8.135c7.725,-1.97 32.308,-1.823 40.574,0.005c4.241,0.937 4.297,2.831 2.325,5.335c-27.024,34.31 -0.664,172.518 -54.897,224.38c-21.44,20.502 -50.269,23.033 -73.878,19.693c-16.637,-2.354 -30.52,-9.344 -37.462,-18.328c-4.697,-6.078 -5.73,-10.086 -4.602,-13.604c1.064,-3.317 7.543,-17.563 9.286,-14.765c4.983,7.997 17.813,14.245 33.843,8.133c19.471,-7.423 35.854,-26.494 40.53,-96.533c4.95,-74.15 -7.502,-101.114 44.281,-114.316Z" style="fill:#fff;"/></g></g></svg>